<svg xmlns="http://www.w3.org/2000/svg" xmlns:xlink="http://www.w3.org/1999/xlink" viewBox="0 0 430 430" width="430" height="430" preserveAspectRatio="xMidYMid meet" style="width: 100%; height: 100%; transform: translate3d(0px, 0px, 0px); content-visibility: visible;"><defs><clipPath id="__lottie_element_3794"><rect width="430" height="430" x="0" y="0"/></clipPath><clipPath id="__lottie_element_3796"><path d="M0,0 L430,0 L430,430 L0,430z"/></clipPath><g id="__lottie_element_3806"><g transform="matrix(-3.700000047683716,0,0,-4.586359977722168,253.92398071289062,181.77499389648438)" opacity="1" style="display: block;"><g opacity="1" transform="matrix(1,0,0,1,-85.4000015258789,0)"><path stroke-linecap="round" stroke-linejoin="round" fill-opacity="0" stroke="rgb(255,255,255)" stroke-opacity="1" stroke-width="2" d=" M47.20000076293945,1.8680000305175781 C47.20000076293945,1.8680000305175781 60.229000091552734,-36.10300064086914 60.229000091552734,-36.10300064086914 C60.229000091552734,-36.10300064086914 76.6259994506836,-36.10300064086914 76.6259994506836,-36.10300064086914 C76.6259994506836,-36.10300064086914 68.7229995727539,1.8680000305175781 68.7229995727539,1.8680000305175781 C68.7229995727539,1.8680000305175781 72.30000305175781,1.8680000305175781 72.30000305175781,1.8680000305175781 C72.30000305175781,1.8680000305175781 81.18499755859375,1.8680000305175781 81.18499755859375,1.8680000305175781 C81.18499755859375,1.8680000305175781 81.18499755859375,35.86800003051758 81.18499755859375,35.86800003051758 C81.18499755859375,35.86800003051758 47.20000076293945,35.86800003051758 47.20000076293945,35.86800003051758 C47.20000076293945,35.86800003051758 47.20000076293945,1.8680000305175781 47.20000076293945,1.8680000305175781z"/><path fill="rgb(165,44,128)" fill-opacity="1" d=" M47.20000076293945,1.8680000305175781 C47.20000076293945,1.8680000305175781 60.229000091552734,-36.10300064086914 60.229000091552734,-36.10300064086914 C60.229000091552734,-36.10300064086914 76.6259994506836,-36.10300064086914 76.6259994506836,-36.10300064086914 C76.6259994506836,-36.10300064086914 68.7229995727539,1.8680000305175781 68.7229995727539,1.8680000305175781 C68.7229995727539,1.8680000305175781 72.30000305175781,1.8680000305175781 72.30000305175781,1.8680000305175781 C72.30000305175781,1.8680000305175781 81.18499755859375,1.8680000305175781 81.18499755859375,1.8680000305175781 C81.18499755859375,1.8680000305175781 81.18499755859375,35.86800003051758 81.18499755859375,35.86800003051758 C81.18499755859375,35.86800003051758 47.20000076293945,35.86800003051758 47.20000076293945,35.86800003051758 C47.20000076293945,35.86800003051758 47.20000076293945,1.8680000305175781 47.20000076293945,1.8680000305175781z"/></g></g></g><g id="__lottie_element_3818"><g transform="matrix(-3.700000047683716,0,0,-4.586359977722168,251.14810180664062,181.77499389648438)" opacity="1" style="display: block;"><g opacity="1" transform="matrix(1,0,0,1,0,0)"><path stroke-linecap="round" stroke-linejoin="round" fill-opacity="0" stroke="rgb(255,255,255)" stroke-opacity="1" stroke-width="2" d=" M5,1.8680000305175781 C5,1.8680000305175781 18.02899932861328,-36.10300064086914 18.02899932861328,-36.10300064086914 C18.02899932861328,-36.10300064086914 34.42599868774414,-36.10300064086914 34.42599868774414,-36.10300064086914 C34.42599868774414,-36.10300064086914 26.523000717163086,1.8680000305175781 26.523000717163086,1.8680000305175781 C26.523000717163086,1.8680000305175781 30.100000381469727,1.8680000305175781 30.100000381469727,1.8680000305175781 C30.100000381469727,1.8680000305175781 38.98500061035156,1.8680000305175781 38.98500061035156,1.8680000305175781 C38.98500061035156,1.8680000305175781 38.98500061035156,35.86800003051758 38.98500061035156,35.86800003051758 C38.98500061035156,35.86800003051758 5,35.86800003051758 5,35.86800003051758 C5,35.86800003051758 5,1.8680000305175781 5,1.8680000305175781z"/><path fill="rgb(165,44,128)" fill-opacity="1" d=" M5,1.8680000305175781 C5,1.8680000305175781 18.02899932861328,-36.10300064086914 18.02899932861328,-36.10300064086914 C18.02899932861328,-36.10300064086914 34.42599868774414,-36.10300064086914 34.42599868774414,-36.10300064086914 C34.42599868774414,-36.10300064086914 26.523000717163086,1.8680000305175781 26.523000717163086,1.8680000305175781 C26.523000717163086,1.8680000305175781 30.100000381469727,1.8680000305175781 30.100000381469727,1.8680000305175781 C30.100000381469727,1.8680000305175781 38.98500061035156,1.8680000305175781 38.98500061035156,1.8680000305175781 C38.98500061035156,1.8680000305175781 38.98500061035156,35.86800003051758 38.98500061035156,35.86800003051758 C38.98500061035156,35.86800003051758 5,35.86800003051758 5,35.86800003051758 C5,35.86800003051758 5,1.8680000305175781 5,1.8680000305175781z"/></g></g></g><filter id="__lottie_element_3824" filterUnits="objectBoundingBox" x="0%" y="0%" width="100%" height="100%"><feComponentTransfer in="SourceGraphic"><feFuncA type="table" tableValues="1.0 0.0"/></feComponentTransfer></filter><mask id="__lottie_element_3818_2" mask-type="alpha"><g filter="url(#__lottie_element_3824)"><rect width="430" height="430" x="0" y="0" fill="#ffffff" opacity="0"/><use xmlns:ns1="http://www.w3.org/1999/xlink" ns1:href="#__lottie_element_3818"/></g></mask><filter id="__lottie_element_3825" filterUnits="objectBoundingBox" x="0%" y="0%" width="100%" height="100%"><feComponentTransfer in="SourceGraphic"><feFuncA type="table" tableValues="1.0 0.0"/></feComponentTransfer></filter><mask id="__lottie_element_3806_2" mask-type="alpha"><g filter="url(#__lottie_element_3825)"><rect width="430" height="430" x="0" y="0" fill="#ffffff" opacity="0"/><use xmlns:ns2="http://www.w3.org/1999/xlink" ns2:href="#__lottie_element_3806"/></g></mask></defs><g clip-path="url(#__lottie_element_3794)"><g clip-path="url(#__lottie_element_3796)" transform="matrix(1,0,0,1,0,0)" opacity="1" style="display: block;"><g transform="matrix(-3.700000047683716,0,0,-3.700000047683716,215.92398071289062,217.77499389648438)" opacity="1" style="display: block;"><path stroke-linecap="butt" stroke-linejoin="miter" fill-opacity="0" stroke-miterlimit="4" class="secondary" stroke="rgb(15,110,199)" stroke-opacity="1" stroke-width="1" d=" M-38.2,1.87 C-38.2,1.87 -25.17,-36.1 -25.17,-36.1 C-25.17,-36.1 -8.77,-36.1 -8.77,-36.1 C-8.77,-36.1 -16.68,1.87 -16.68,1.87 C-16.68,1.87 -13.1,1.87 -13.1,1.87 C-13.1,1.87 -4.22,1.87 -4.22,1.87 C-4.22,1.87 -4.22,35.87 -4.22,35.87 C-4.22,35.87 -38.2,35.87 -38.2,35.87 C-38.2,35.87 -38.2,1.87 -38.2,1.87z"/><g opacity="1" transform="matrix(1,0,0,1,-85.4000015258789,0)"><path class="secondary" fill="rgb(15,110,199)" fill-opacity="1" d=" M47.20000076293945,1.8680000305175781 C47.20000076293945,1.8680000305175781 60.229000091552734,-36.10300064086914 60.229000091552734,-36.10300064086914 C60.229000091552734,-36.10300064086914 76.6259994506836,-36.10300064086914 76.6259994506836,-36.10300064086914 C76.6259994506836,-36.10300064086914 68.7229995727539,1.8680000305175781 68.7229995727539,1.8680000305175781 C68.7229995727539,1.8680000305175781 72.30000305175781,1.8680000305175781 72.30000305175781,1.8680000305175781 C72.30000305175781,1.8680000305175781 81.18499755859375,1.8680000305175781 81.18499755859375,1.8680000305175781 C81.18499755859375,1.8680000305175781 81.18499755859375,35.86800003051758 81.18499755859375,35.86800003051758 C81.18499755859375,35.86800003051758 47.20000076293945,35.86800003051758 47.20000076293945,35.86800003051758 C47.20000076293945,35.86800003051758 47.20000076293945,1.8680000305175781 47.20000076293945,1.8680000305175781z"/></g></g><g mask="url(#__lottie_element_3806_2)" style="display: block;"><g transform="matrix(-3.700000047683716,0,0,-3.700000047683716,215.92398071289062,217.77499389648438)" opacity="1"><path stroke-linecap="butt" stroke-linejoin="miter" fill-opacity="0" stroke-miterlimit="4" class="secondary" stroke="rgb(15,110,199)" stroke-opacity="1" stroke-width="1" d=" M-38.2,1.87 C-38.2,1.87 -25.17,-36.1 -25.17,-36.1 C-25.17,-36.1 -8.77,-36.1 -8.77,-36.1 C-8.77,-36.1 -16.68,1.87 -16.68,1.87 C-16.68,1.87 -13.1,1.87 -13.1,1.87 C-13.1,1.87 -4.22,1.87 -4.22,1.87 C-4.22,1.87 -4.22,35.87 -4.22,35.87 C-4.22,35.87 -38.2,35.87 -38.2,35.87 C-38.2,35.87 -38.2,1.87 -38.2,1.87z"/><path stroke-linecap="butt" stroke-linejoin="miter" fill-opacity="0" stroke-miterlimit="4" class="secondary" stroke="rgb(15,110,199)" stroke-opacity="0.5" stroke-width="1" d=" M-38.2,1.87 C-38.2,1.87 -25.17,-36.1 -25.17,-36.1 C-25.17,-36.1 -8.77,-36.1 -8.77,-36.1 C-8.77,-36.1 -16.68,1.87 -16.68,1.87 C-16.68,1.87 -13.1,1.87 -13.1,1.87 C-13.1,1.87 -4.22,1.87 -4.22,1.87 C-4.22,1.87 -4.22,35.87 -4.22,35.87 C-4.22,35.87 -38.2,35.87 -38.2,35.87 C-38.2,35.87 -38.2,1.87 -38.2,1.87z" style="mix-blend-mode: multiply;"/><g opacity="1" transform="matrix(1,0,0,1,-85.4000015258789,0)"><path class="secondary" fill="rgb(15,110,199)" fill-opacity="1" d=" M47.20000076293945,1.8680000305175781 C47.20000076293945,1.8680000305175781 60.229000091552734,-36.10300064086914 60.229000091552734,-36.10300064086914 C60.229000091552734,-36.10300064086914 76.6259994506836,-36.10300064086914 76.6259994506836,-36.10300064086914 C76.6259994506836,-36.10300064086914 68.7229995727539,1.8680000305175781 68.7229995727539,1.8680000305175781 C68.7229995727539,1.8680000305175781 72.30000305175781,1.8680000305175781 72.30000305175781,1.8680000305175781 C72.30000305175781,1.8680000305175781 81.18499755859375,1.8680000305175781 81.18499755859375,1.8680000305175781 C81.18499755859375,1.8680000305175781 81.18499755859375,35.86800003051758 81.18499755859375,35.86800003051758 C81.18499755859375,35.86800003051758 47.20000076293945,35.86800003051758 47.20000076293945,35.86800003051758 C47.20000076293945,35.86800003051758 47.20000076293945,1.8680000305175781 47.20000076293945,1.8680000305175781z"/><path class="secondary" fill="rgb(15,110,199)" fill-opacity="0.5" d=" M47.20000076293945,1.8680000305175781 C47.20000076293945,1.8680000305175781 60.229000091552734,-36.10300064086914 60.229000091552734,-36.10300064086914 C60.229000091552734,-36.10300064086914 76.6259994506836,-36.10300064086914 76.6259994506836,-36.10300064086914 C76.6259994506836,-36.10300064086914 68.7229995727539,1.8680000305175781 68.7229995727539,1.8680000305175781 C68.7229995727539,1.8680000305175781 72.30000305175781,1.8680000305175781 72.30000305175781,1.8680000305175781 C72.30000305175781,1.8680000305175781 81.18499755859375,1.8680000305175781 81.18499755859375,1.8680000305175781 C81.18499755859375,1.8680000305175781 81.18499755859375,35.86800003051758 81.18499755859375,35.86800003051758 C81.18499755859375,35.86800003051758 47.20000076293945,35.86800003051758 47.20000076293945,35.86800003051758 C47.20000076293945,35.86800003051758 47.20000076293945,1.8680000305175781 47.20000076293945,1.8680000305175781z" style="mix-blend-mode: multiply;"/></g></g></g><g transform="matrix(-3.700000047683716,0,0,-3.700000047683716,215.92398071289062,217.77499389648438)" opacity="1" style="display: block;"><g opacity="1" transform="matrix(1,0,0,1,-85.4000015258789,0)"><path stroke-linecap="round" stroke-linejoin="round" fill-opacity="0" class="primary" stroke="rgb(18,19,49)" stroke-opacity="1" stroke-width="2.03" d=" M47.20000076293945,1.8680000305175781 C47.20000076293945,1.8680000305175781 60.229000091552734,-36.10300064086914 60.229000091552734,-36.10300064086914 C60.229000091552734,-36.10300064086914 76.6259994506836,-36.10300064086914 76.6259994506836,-36.10300064086914 C76.6259994506836,-36.10300064086914 68.7229995727539,1.8680000305175781 68.7229995727539,1.8680000305175781 C68.7229995727539,1.8680000305175781 72.30000305175781,1.8680000305175781 72.30000305175781,1.8680000305175781 C72.30000305175781,1.8680000305175781 81.18499755859375,1.8680000305175781 81.18499755859375,1.8680000305175781 C81.18499755859375,1.8680000305175781 81.18499755859375,35.86800003051758 81.18499755859375,35.86800003051758 C81.18499755859375,35.86800003051758 47.20000076293945,35.86800003051758 47.20000076293945,35.86800003051758 C47.20000076293945,35.86800003051758 47.20000076293945,1.8680000305175781 47.20000076293945,1.8680000305175781z"/></g></g><g transform="matrix(-3.700000047683716,0,0,-3.700000047683716,213.14810180664062,217.77499389648438)" opacity="1" style="display: block;"><path stroke-linecap="butt" stroke-linejoin="miter" fill-opacity="0" stroke-miterlimit="4" class="secondary" stroke="rgb(15,110,199)" stroke-opacity="1" stroke-width="1" d=" M5,1.8680000305175781 C5,1.8680000305175781 18.02899932861328,-36.10300064086914 18.02899932861328,-36.10300064086914 C18.02899932861328,-36.10300064086914 34.42599868774414,-36.10300064086914 34.42599868774414,-36.10300064086914 C34.42599868774414,-36.10300064086914 26.523000717163086,1.8680000305175781 26.523000717163086,1.8680000305175781 C26.523000717163086,1.8680000305175781 30.100000381469727,1.8680000305175781 30.100000381469727,1.8680000305175781 C30.100000381469727,1.8680000305175781 38.98500061035156,1.8680000305175781 38.98500061035156,1.8680000305175781 C38.98500061035156,1.8680000305175781 38.98500061035156,35.86800003051758 38.98500061035156,35.86800003051758 C38.98500061035156,35.86800003051758 5,35.86800003051758 5,35.86800003051758 C5,35.86800003051758 5,1.8680000305175781 5,1.8680000305175781z"/><g opacity="1" transform="matrix(1,0,0,1,0,0)"><path class="secondary" fill="rgb(15,110,199)" fill-opacity="1" d=" M5,1.8680000305175781 C5,1.8680000305175781 18.02899932861328,-36.10300064086914 18.02899932861328,-36.10300064086914 C18.02899932861328,-36.10300064086914 34.42599868774414,-36.10300064086914 34.42599868774414,-36.10300064086914 C34.42599868774414,-36.10300064086914 26.523000717163086,1.8680000305175781 26.523000717163086,1.8680000305175781 C26.523000717163086,1.8680000305175781 30.100000381469727,1.8680000305175781 30.100000381469727,1.8680000305175781 C30.100000381469727,1.8680000305175781 38.98500061035156,1.8680000305175781 38.98500061035156,1.8680000305175781 C38.98500061035156,1.8680000305175781 38.98500061035156,35.86800003051758 38.98500061035156,35.86800003051758 C38.98500061035156,35.86800003051758 5,35.86800003051758 5,35.86800003051758 C5,35.86800003051758 5,1.8680000305175781 5,1.8680000305175781z"/></g></g><g mask="url(#__lottie_element_3818_2)" style="display: block;"><g transform="matrix(-3.700000047683716,0,0,-3.700000047683716,213.14810180664062,217.77499389648438)" opacity="1"><path stroke-linecap="butt" stroke-linejoin="miter" fill-opacity="0" stroke-miterlimit="4" class="secondary" stroke="rgb(15,110,199)" stroke-opacity="1" stroke-width="1" d=" M5,1.8680000305175781 C5,1.8680000305175781 18.02899932861328,-36.10300064086914 18.02899932861328,-36.10300064086914 C18.02899932861328,-36.10300064086914 34.42599868774414,-36.10300064086914 34.42599868774414,-36.10300064086914 C34.42599868774414,-36.10300064086914 26.523000717163086,1.8680000305175781 26.523000717163086,1.8680000305175781 C26.523000717163086,1.8680000305175781 30.100000381469727,1.8680000305175781 30.100000381469727,1.8680000305175781 C30.100000381469727,1.8680000305175781 38.98500061035156,1.8680000305175781 38.98500061035156,1.8680000305175781 C38.98500061035156,1.8680000305175781 38.98500061035156,35.86800003051758 38.98500061035156,35.86800003051758 C38.98500061035156,35.86800003051758 5,35.86800003051758 5,35.86800003051758 C5,35.86800003051758 5,1.8680000305175781 5,1.8680000305175781z"/><path stroke-linecap="butt" stroke-linejoin="miter" fill-opacity="0" stroke-miterlimit="4" class="secondary" stroke="rgb(15,110,199)" stroke-opacity="0.5" stroke-width="1" d=" M5,1.8680000305175781 C5,1.8680000305175781 18.02899932861328,-36.10300064086914 18.02899932861328,-36.10300064086914 C18.02899932861328,-36.10300064086914 34.42599868774414,-36.10300064086914 34.42599868774414,-36.10300064086914 C34.42599868774414,-36.10300064086914 26.523000717163086,1.8680000305175781 26.523000717163086,1.8680000305175781 C26.523000717163086,1.8680000305175781 30.100000381469727,1.8680000305175781 30.100000381469727,1.8680000305175781 C30.100000381469727,1.8680000305175781 38.98500061035156,1.8680000305175781 38.98500061035156,1.8680000305175781 C38.98500061035156,1.8680000305175781 38.98500061035156,35.86800003051758 38.98500061035156,35.86800003051758 C38.98500061035156,35.86800003051758 5,35.86800003051758 5,35.86800003051758 C5,35.86800003051758 5,1.8680000305175781 5,1.8680000305175781z" style="mix-blend-mode: multiply;"/><g opacity="1" transform="matrix(1,0,0,1,0,0)"><path class="secondary" fill="rgb(15,110,199)" fill-opacity="1" d=" M5,1.8680000305175781 C5,1.8680000305175781 18.02899932861328,-36.10300064086914 18.02899932861328,-36.10300064086914 C18.02899932861328,-36.10300064086914 34.42599868774414,-36.10300064086914 34.42599868774414,-36.10300064086914 C34.42599868774414,-36.10300064086914 26.523000717163086,1.8680000305175781 26.523000717163086,1.8680000305175781 C26.523000717163086,1.8680000305175781 30.100000381469727,1.8680000305175781 30.100000381469727,1.8680000305175781 C30.100000381469727,1.8680000305175781 38.98500061035156,1.8680000305175781 38.98500061035156,1.8680000305175781 C38.98500061035156,1.8680000305175781 38.98500061035156,35.86800003051758 38.98500061035156,35.86800003051758 C38.98500061035156,35.86800003051758 5,35.86800003051758 5,35.86800003051758 C5,35.86800003051758 5,1.8680000305175781 5,1.8680000305175781z"/><path class="secondary" fill="rgb(15,110,199)" fill-opacity="0.5" d=" M5,1.8680000305175781 C5,1.8680000305175781 18.02899932861328,-36.10300064086914 18.02899932861328,-36.10300064086914 C18.02899932861328,-36.10300064086914 34.42599868774414,-36.10300064086914 34.42599868774414,-36.10300064086914 C34.42599868774414,-36.10300064086914 26.523000717163086,1.8680000305175781 26.523000717163086,1.8680000305175781 C26.523000717163086,1.8680000305175781 30.100000381469727,1.8680000305175781 30.100000381469727,1.8680000305175781 C30.100000381469727,1.8680000305175781 38.98500061035156,1.8680000305175781 38.98500061035156,1.8680000305175781 C38.98500061035156,1.8680000305175781 38.98500061035156,35.86800003051758 38.98500061035156,35.86800003051758 C38.98500061035156,35.86800003051758 5,35.86800003051758 5,35.86800003051758 C5,35.86800003051758 5,1.8680000305175781 5,1.8680000305175781z" style="mix-blend-mode: multiply;"/></g></g></g><g transform="matrix(-3.700000047683716,0,0,-3.700000047683716,213.14810180664062,217.77499389648438)" opacity="1" style="display: block;"><g opacity="1" transform="matrix(1,0,0,1,0,0)"><path stroke-linecap="round" stroke-linejoin="round" fill-opacity="0" class="primary" stroke="rgb(18,19,49)" stroke-opacity="1" stroke-width="2.03" d=" M5,1.8680000305175781 C5,1.8680000305175781 18.02899932861328,-36.10300064086914 18.02899932861328,-36.10300064086914 C18.02899932861328,-36.10300064086914 34.42599868774414,-36.10300064086914 34.42599868774414,-36.10300064086914 C34.42599868774414,-36.10300064086914 26.523000717163086,1.8680000305175781 26.523000717163086,1.8680000305175781 C26.523000717163086,1.8680000305175781 30.100000381469727,1.8680000305175781 30.100000381469727,1.8680000305175781 C30.100000381469727,1.8680000305175781 38.98500061035156,1.8680000305175781 38.98500061035156,1.8680000305175781 C38.98500061035156,1.8680000305175781 38.98500061035156,35.86800003051758 38.98500061035156,35.86800003051758 C38.98500061035156,35.86800003051758 5,35.86800003051758 5,35.86800003051758 C5,35.86800003051758 5,1.8680000305175781 5,1.8680000305175781z"/></g></g></g></g></svg>